<svg id="_x31__stroke" xmlns="http://www.w3.org/2000/svg" width="128" height="128" viewBox="0 0 128 128">
  <g id="Github_1_">
    <rect id="Rectangle_11" data-name="Rectangle 11" width="128" height="128" fill="none"/>
    <path id="Github" d="M64,1.333A64.293,64.293,0,0,0,43.772,126.556c3.2.59,4.368-1.394,4.368-3.1,0-1.526-.056-5.566-.088-10.927-17.8,3.883-21.56-8.614-21.56-8.614-2.908-7.421-7.1-9.4-7.1-9.4-5.812-3.988.44-3.907.44-3.907,6.42.454,9.8,6.622,9.8,6.622,5.712,9.819,14.98,6.984,18.628,5.337.58-4.152,2.236-6.984,4.064-8.59-14.212-1.622-29.152-7.132-29.152-31.753a24.889,24.889,0,0,1,6.588-17.244c-.66-1.626-2.856-8.156.624-17,0,0,5.376-1.727,17.6,6.586a60.382,60.382,0,0,1,32.048,0c12.216-8.313,17.58-6.586,17.58-6.586,3.492,8.847,1.3,15.377.636,17a24.847,24.847,0,0,1,6.58,17.244c0,24.681-14.964,30.115-29.22,31.705,2.3,1.984,4.344,5.9,4.344,11.9,0,8.59-.08,15.517-.08,17.626,0,1.719,1.152,3.719,4.4,3.088A64.3,64.3,0,0,0,64,1.333" fill="#3e75c3" fill-rule="evenodd"/>
  </g>
</svg>
