<svg id="github-b" xmlns="http://www.w3.org/2000/svg" width="42.049" height="37.981" viewBox="0 0 42.049 37.981">
  <g id="Component_7_1" data-name="Component 7 – 1">
    <path id="Path_1" data-name="Path 1" d="M4.672,37.981h32.7a4.463,4.463,0,0,0,4.672-4.22V4.22A4.463,4.463,0,0,0,37.377,0H4.672A4.463,4.463,0,0,0,0,4.22V33.761A4.463,4.463,0,0,0,4.672,37.981Z" fill="#3e75c3" fill-rule="evenodd"/>
  </g>
  <g id="github-x" transform="translate(7.008 5.056)">
    <path id="Path_2" data-name="Path 2" d="M26.016,12a14.081,14.081,0,0,0-4.429,27.425c.7.129.957-.305.957-.678,0-.334-.012-1.219-.019-2.393-3.9.851-4.722-1.886-4.722-1.886a3.72,3.72,0,0,0-1.556-2.058c-1.273-.873.1-.856.1-.856A2.945,2.945,0,0,1,18.489,33a2.978,2.978,0,0,0,4.08,1.169,3.01,3.01,0,0,1,.89-1.881c-3.113-.355-6.384-1.562-6.384-6.954a5.451,5.451,0,0,1,1.443-3.777,5.077,5.077,0,0,1,.137-3.724s1.177-.378,3.855,1.442a13.227,13.227,0,0,1,7.019,0c2.675-1.821,3.85-1.442,3.85-1.442a5.069,5.069,0,0,1,.139,3.724,5.442,5.442,0,0,1,1.441,3.777c0,5.405-3.277,6.6-6.4,6.944a3.367,3.367,0,0,1,.951,2.606c0,1.881-.018,3.4-.018,3.86,0,.376.252.814.964.676A14.081,14.081,0,0,0,26.016,12" transform="translate(-12 -12)" fill="#fff" fill-rule="evenodd"/>
  </g>
</svg>
