<svg xmlns="http://www.w3.org/2000/svg" xmlns:xlink="http://www.w3.org/1999/xlink" width="111.223" height="125.136" viewBox="0 0 111.223 125.136">
  <defs>
    <linearGradient id="linear-gradient" y1="0.5" x2="1" y2="0.5" gradientUnits="objectBoundingBox">
      <stop offset="0" stop-color="#0f152e"/>
      <stop offset="0.12" stop-color="#141d3a"/>
      <stop offset="0.34" stop-color="#203259"/>
      <stop offset="0.64" stop-color="#34548c"/>
      <stop offset="0.99" stop-color="#4f83d2"/>
      <stop offset="1" stop-color="#5085d5"/>
    </linearGradient>
  </defs>
  <g id="paper-girl" transform="translate(0.015 0.254)">
    <path id="Path_77" data-name="Path 77" d="M322.249,217.534a28.335,28.335,0,0,1-1.91,10.232c-4.817,12.5-18.245,21.5-34.045,21.5-14.8,0-27.505-7.89-33.023-19.163a28.453,28.453,0,0,1-2.931-12.571c0-.766.032-1.527.091-2.277,1.325-16.462,16.875-29.457,35.863-29.457,17.747,0,32.492,11.349,35.423,26.272A28.245,28.245,0,0,1,322.249,217.534Z" transform="translate(-234.343 -182.694)" fill="#42210b" stroke="#000" stroke-miterlimit="10" stroke-width="0.5" opacity="0.77"/>
    <g id="Group_23" data-name="Group 23" transform="translate(48.069 3.106)" opacity="0.2">
      <path id="Path_78" data-name="Path 78" d="M331.34,249.078c1.3.127,2.626.19,3.967.19,19.858,0,35.955-14.209,35.955-31.734s-16.1-31.734-35.955-31.734c-1.341,0-2.666.063-3.967.19,17.993,1.745,32,15.2,32,31.544S349.333,247.332,331.34,249.078Z" transform="translate(-331.34 -185.8)"/>
    </g>
    <path id="Path_79" data-name="Path 79" d="M245.513,274.635c-.282.159-.6.329-.948.52-5.157,2.777-6.347.4-6.347-5.95,0-5.95-3.15-10.226,3.57-9.52.313.032.607.067.885.1-.06.75-.091,1.511-.091,2.277A28.454,28.454,0,0,0,245.513,274.635Z" transform="translate(-226.489 -226.905)" fill="#42210b" stroke="#000" stroke-miterlimit="10" stroke-width="0.5" opacity="0.77"/>
    <path id="Path_80" data-name="Path 80" d="M432.554,261.188c0,6.1-1.095,8.529-5.744,6.26a28.351,28.351,0,0,0,1.376-15.7c.254-.032.52-.063.793-.091C435.7,250.953,432.554,255.237,432.554,261.188Z" transform="translate(-340.922 -222.122)" fill="#42210b" stroke="#000" stroke-miterlimit="10" stroke-width="0.5" opacity="0.77"/>
    <path id="Path_81" data-name="Path 81" d="M328.948,357.009a12.292,12.292,0,0,0-.341,5.553,16.41,16.41,0,0,0,.4,1.983l-7.315-2.38c3.193,3.086,5.014,11.242,6.037,18.8h0a19.986,19.986,0,0,1-14.59,9.358c-10.71,1.587,3.967,1.587,5.157,1.983s-22.214,11.9-42.821,3.967h-.02c-1.19-21.421,6.482-34.114,6.482-34.114-3.832,3.57-6.482,3.57-6.482,3.57a21.146,21.146,0,0,0,.421-3.1,14.142,14.142,0,0,0-.762-5.684,7.728,7.728,0,0,0-1.242-2.3s11.682-7.489,23.332-9.453c-.984,1.043-3.062,3.626-1.515,5.486,1.674,2.007,5.042,2.039,6.053,1.983h.032c1.012.04,4.363,0,6.053-1.983s-.817-4.78-1.694-5.668c11.305,1.614,24.463,9.635,24.463,9.635a5.062,5.062,0,0,0-1.646,2.364Z" transform="translate(-248.548 -277.3)" fill="#9e005d" stroke="#000" stroke-miterlimit="10" stroke-width="0.5"/>
    <path id="Path_82" data-name="Path 82" d="M342.383,346.68c0,2.971-1.587,5.4-3.57,5.553h-.194a2.518,2.518,0,0,1-.345-.024c-1.921-.258-3.424-2.634-3.424-5.53a7.935,7.935,0,0,1,.127-1.428c.04-.226.091-.448.147-.658a29.9,29.9,0,0,1,4.09-.294,25.352,25.352,0,0,1,2.864.171c.052.182.1.373.139.567A7.865,7.865,0,0,1,342.383,346.68Z" transform="translate(-285.341 -277.455)" fill="#42210b" stroke="#000" stroke-miterlimit="10" stroke-width="0.5" opacity="0.77"/>
    <path id="Path_83" data-name="Path 83" d="M340.135,350.51c-1.674,2.007-5.042,2.039-6.053,1.983h-.032c-1.012.04-4.363,0-6.053-1.983-1.547-1.86.532-4.443,1.515-5.486l.666-.1.472-.067c-.056.21-.107.432-.147.658a7.935,7.935,0,0,0-.127,1.428c0,2.9,1.5,5.272,3.423,5.53a2.521,2.521,0,0,0,.345.024h.194c1.983-.147,3.57-2.574,3.57-5.553a7.867,7.867,0,0,0-.171-1.642,5.386,5.386,0,0,0-.139-.567l.424.056.4.056C339.318,345.73,341.785,348.53,340.135,350.51Z" transform="translate(-280.871 -277.713)" fill="#2e3192"/>
    <path id="Path_84" data-name="Path 84" d="M429.148,378.76c-.793.4-.829-1.075-1.19-.793-.3.234-.143,1.587-.4,1.587-.4,0-.4-.793-.4-.793a12.944,12.944,0,0,1-7.537,4.76c-1.785.4-5.232-3.086-8.013-3.455a12.27,12.27,0,0,1,.341-5.553H412a58.6,58.6,0,0,0,6.831,4.248c2.336,1.17,4.76-1.587,6.656-2.662,0,0-.309-2.1.881-2.1,1.587,0,2.38,0,2.777,1.19C429.223,375.432,429.941,378.363,429.148,378.76Z" transform="translate(-331.662 -295.144)" fill="#42210b" stroke="#000" stroke-miterlimit="10" stroke-width="0.5" opacity="0.8"/>
    <path id="Path_85" data-name="Path 85" d="M245.681,377.68c-.222.036-.456.071-.7.1-11.976,1.626-14.372-.813-14.372-.813-.424.635-3.995.635-3.995.635s-1.983,0-1.983-.4c0-.793,2.1-.313,2.174-.448.131-.246-2.57-.345-2.57-.742,0-.793,3.245-.615,3.372-.9.087-.2-3.768.5-3.768-.294s4.225-.726,4.363-1.19c.1-.349-4.363,0-4.363-.793s1.983-.436,3.173-.793c.44-.131-1.4-1.067-1.19-1.587.793-1.983,5.553,1.983,5.157,2.777,4.391.4,13.6-1.15,13.6-1.15l.333-.115a14.141,14.141,0,0,1,.766,5.7Z" transform="translate(-218.254 -292.721)" fill="#42210b" stroke="#000" stroke-miterlimit="10" stroke-width="0.5" opacity="0.8"/>
    <circle id="Ellipse_8" data-name="Ellipse 8" cx="2.38" cy="2.38" r="2.38" transform="translate(50.696 89.019)" fill="#fff" stroke="#000" stroke-miterlimit="10" stroke-width="0.5"/>
    <circle id="Ellipse_9" data-name="Ellipse 9" cx="2.38" cy="2.38" r="2.38" transform="translate(50.696 97.9)" fill="#fff" stroke="#000" stroke-miterlimit="10" stroke-width="0.5"/>
    <circle id="Ellipse_10" data-name="Ellipse 10" cx="2.38" cy="2.38" r="2.38" transform="translate(50.696 106.781)" fill="#fff" stroke="#000" stroke-miterlimit="10" stroke-width="0.5"/>
    <path id="Path_86" data-name="Path 86" d="M331.44,450.7a1.29,1.29,0,0,1-.4.329c-1.733.793-3.463,1.488-5.157,2.09a68.922,68.922,0,0,1-21.345,3.546h-.4c-14.594,0-24.554-4.76-26.05-5.553l-.067-.032h0l-.087-.044h0c20.627,7.934,44.031-3.57,42.841-3.967s-15.867-.4-5.157-1.983a19.986,19.986,0,0,0,14.59-9.358C331.118,442.711,331.388,449.2,331.44,450.7Z" transform="translate(-251.004 -331.784)" fill="url(#linear-gradient)"/>
    <path id="Path_87" data-name="Path 87" d="M291.018,186.44l-.059.02a38.905,38.905,0,0,0-13.023,3.86,36.276,36.276,0,0,0-5.573,3.447h0a33.655,33.655,0,0,0-6.418,6.319l-.127.171-.02.028v-.024l-.028-.06h0a33.543,33.543,0,0,1,6.505-6.43h0a1.732,1.732,0,0,1,.171-.127,36.1,36.1,0,0,1,5.256-3.257h0a39.044,39.044,0,0,1,13.316-3.947Z" transform="translate(-243.605 -183.32)"/>
    <path id="Path_88" data-name="Path 88" d="M291.043,186.44a39.045,39.045,0,0,0-13.3,3.947h0a36.1,36.1,0,0,0-5.256,3.257,1.722,1.722,0,0,0-.171.127h0a33.544,33.544,0,0,0-6.505,6.43h0l.028.06v.024l.02-.028.127-.171a33.655,33.655,0,0,1,6.418-6.319h0a36.275,36.275,0,0,1,5.573-3.447A38.906,38.906,0,0,1,291,186.46l.06-.02Z" transform="translate(-243.629 -183.32)"/>
    <path id="Path_89" data-name="Path 89" d="M210.136,254.57h-.127l-.329.02Z" transform="translate(-209.68 -224.004)" stroke="#000" stroke-miterlimit="10" stroke-width="0.5"/>
    <path id="Path_90" data-name="Path 90" d="M272.444,204.61l-.091.119h0a33.652,33.652,0,0,0-6.418,6.319l-.127.171-.02.028v-.024l-.028-.059h0a33.541,33.541,0,0,1,6.505-6.43h0A1.732,1.732,0,0,1,272.444,204.61Z" transform="translate(-243.58 -194.178)" stroke="#000" stroke-miterlimit="10" stroke-width="0.5"/>
    <path id="Path_91" data-name="Path 91" d="M210.136,254.57h-.127l-.329.02Z" transform="translate(-209.68 -224.004)" stroke="#000" stroke-miterlimit="10" stroke-width="0.5"/>
    <path id="Path_92" data-name="Path 92" d="M377.45,192.606a.094.094,0,0,0,0,.032q-1.19-.512-2.38-.948h.024A23.173,23.173,0,0,1,377.45,192.606Z" transform="translate(-309.643 -187.138)" stroke="#000" stroke-miterlimit="10" stroke-width="0.5" opacity="0.8"/>
    <path id="Path_93" data-name="Path 93" d="M372.462,190.7h-.024c-.559-.2-1.123-.4-1.7-.563l.028-.02c.424.131.841.266,1.257.4.1.036.2.067.3.107A.913.913,0,0,1,372.462,190.7Z" transform="translate(-307.025 -186.191)" stroke="#000" stroke-miterlimit="10" stroke-width="0.5" opacity="0.8"/>
    <path id="Path_94" data-name="Path 94" d="M347.175,186.023h-.206c-.44-.036-.881-.063-1.329-.083.448,0,.893.044,1.337.079Z" transform="translate(-291.854 -183.669)" stroke="#000" stroke-miterlimit="10" stroke-width="0.5" opacity="0.8"/>
    <path id="Path_95" data-name="Path 95" d="M354.166,186.65Z" transform="translate(-296.984 -184.097)" stroke="#000" stroke-miterlimit="10" stroke-width="0.5" opacity="0.8"/>
    <path id="Path_96" data-name="Path 96" d="M287.843,196.22a36.277,36.277,0,0,0-5.573,3.447h-.079a1.721,1.721,0,0,1,.171-.127,36.1,36.1,0,0,1,5.256-3.257h0Z" transform="translate(-253.51 -189.188)" stroke="#000" stroke-miterlimit="10" stroke-width="0.5" opacity="0.8"/>
    <path id="Path_97" data-name="Path 97" d="M346.979,185.973h0c-.44-.036-.881-.063-1.329-.083C346.094,185.91,346.539,185.934,346.979,185.973Z" transform="translate(-291.86 -183.639)" stroke="#000" stroke-miterlimit="10" stroke-width="0.5" opacity="0.8"/>
    <ellipse id="Ellipse_11" data-name="Ellipse 11" cx="1.547" cy="3.094" rx="1.547" ry="3.094" transform="translate(35.27 32.672)"/>
    <ellipse id="Ellipse_12" data-name="Ellipse 12" cx="1.547" cy="3.094" rx="1.547" ry="3.094" transform="translate(67.511 32.672)"/>
    <ellipse id="Ellipse_13" data-name="Ellipse 13" cx="3.372" cy="0.992" rx="3.372" ry="0.992" transform="translate(29.53 45.199)" fill="#42210b" opacity="0.6"/>
    <ellipse id="Ellipse_14" data-name="Ellipse 14" cx="3.372" cy="0.992" rx="3.372" ry="0.992" transform="translate(69.483 45.199)" fill="#42210b" opacity="0.6"/>
    <path id="Path_98" data-name="Path 98" d="M316.045,310.3c-3.967,8.33,15.867,10.71,18.247,1.587" transform="translate(-273.673 -257.189)" fill="none" stroke="#000" stroke-miterlimit="10" stroke-width="0.5"/>
    <path id="Path_99" data-name="Path 99" d="M258.817,216.622c-.583,0-1.19,0-1.813-.048-1.162-.06-2.444-.186-3.8-.373.111-.472.242-.956.4-1.484.258-.873.567-1.769.928-2.658a33.118,33.118,0,0,1,16.942-17.283c.29-.139.579-.274.873-.4.067.226.139.468.206.714.3,1.111.551,2.217.742,3.3.734,4.153.924,9.917-2.344,13.816-2.459,2.935-6.537,4.419-12.126,4.419Z" transform="translate(-236.001 -188.017)"/>
    <path id="Path_100" data-name="Path 100" d="M272.1,194.27c.06.194.115.4.175.6.3,1.107.551,2.217.742,3.292.73,4.129.916,9.869-2.325,13.733-2.44,2.912-6.494,4.363-12.051,4.363-.583,0-1.19,0-1.8-.048-1.134-.06-2.38-.179-3.689-.357.1-.436.226-.889.369-1.373.254-.869.567-1.761.924-2.646a33.045,33.045,0,0,1,16.89-17.236c.25-.115.5-.234.77-.353m.127-.27c-.329.143-.655.29-.98.444a33.364,33.364,0,0,0-16.99,17.339c-.353.873-.666,1.761-.932,2.666-.155.524-.3,1.055-.42,1.587q2.09.294,3.919.4c.627.032,1.234.048,1.817.048,15.185,0,15.895-10.845,14.57-18.35-.214-1.21-.48-2.332-.746-3.308C272.381,194.516,272.3,194.238,272.222,193.98Z" transform="translate(-235.82 -187.778)"/>
    <path id="Path_101" data-name="Path 101" d="M399.82,188.786l.091.123a1.723,1.723,0,0,1,.171.127h0a33.543,33.543,0,0,1,6.506,6.43c.262-.52,2.15-4.11,3.939-1.127.175.29.4.6.611.916l.167.226.175.226h0c.056.075.115.147.178.222h0l.182.222h0c4.943,5.926,17.545,14.677,22.849,9.842a4.141,4.141,0,0,0,.3-.294,2.124,2.124,0,0,0,.155-.175,11.177,11.177,0,0,0-.02-6.041s-1.587,6.347-6.743,4.363c-7.811-3-13.09-11.5-17.057-20.23-5.157-11.381-9.639-.48-11.043,3.689C399.979,188.2,399.82,188.786,399.82,188.786Z" transform="translate(-324.667 -178.585)" stroke="#000" stroke-miterlimit="10" stroke-width="0.5"/>
    <path id="Path_102" data-name="Path 102" d="M307.64,190.765l.075.071c18.433,16.807,34.257,20.258,44.971,19.834.524-.024,1.035-.052,1.535-.091.341-.024.674-.056,1-.087h.083v-.04c0-.091-.024-.178-.028-.258a30.118,30.118,0,0,0-4.308-7.735l-.028.06v.024l-.02-.028c-.532,0-1.067.028-1.614.028-10.5.048-24.2-2.682-39.989-12.352C308.763,190.376,308.2,190.563,307.64,190.765Z" transform="translate(-268.954 -185.529)" stroke="#000" stroke-miterlimit="10" stroke-width="0.5"/>
    <path id="Path_103" data-name="Path 103" d="M416.89,217.648h0a30.12,30.12,0,0,1,4.308,7.735c-.214-2.38,2.011-.536,2.011-.536q1.067.6,2.071,1.123l.04.02c5.43,2.86,9.457,4.3,12.432,4.788h0l.46.071h.032l.428.048.456.032-.329-.02c3.876.4,5.7-1.043,6.505-2.88h0c.044-.1.087-.206.123-.313a2.119,2.119,0,0,1-.155.175,4.154,4.154,0,0,1-.3.294c-5.3,4.851-17.906-3.915-22.849-9.842h0l-.182-.222h0c-.063-.075-.123-.147-.179-.222h0l-.175-.226-.167-.226c-.23-.317-.436-.627-.611-.916C419.04,213.539,417.152,217.129,416.89,217.648Z" transform="translate(-334.971 -200.542)" stroke="#000" stroke-miterlimit="10" stroke-width="0.5"/>
    <path id="Path_104" data-name="Path 104" d="M301.61,192.576c.079.258.159.536.238.821q.655.821,1.3,1.607c25.59,30.976,46.839,21.381,49.584,19.961a27.719,27.719,0,0,0-1.043-3.6h-.083c-.329.032-.662.063-1,.087-.5.04-1.012.067-1.535.091-10.71.42-26.538-3.031-44.971-19.834l-.075-.071Q302.78,192.076,301.61,192.576Z" transform="translate(-265.314 -186.37)" stroke="#000" stroke-miterlimit="10" stroke-width="0.5" opacity="0.8"/>
    <path id="Path_105" data-name="Path 105" d="M333.67,185.925a73.559,73.559,0,0,0,26.419,7.458,36.27,36.27,0,0,0-5.553-3.447,38.906,38.906,0,0,0-13.023-3.86l-.06-.02h0c-.964-.107-1.94-.182-2.927-.218-.278,0-.559,0-.841-.024s-.476,0-.718,0H336.8c-.591,0-1.19,0-1.769.04C334.551,185.881,334.11,185.881,333.67,185.925Z" transform="translate(-284.655 -182.962)" stroke="#000" stroke-miterlimit="10" stroke-width="0.5"/>
    <path id="Path_106" data-name="Path 106" d="M252.71,216.007h.075q2.09.294,3.919.4c16.942.889,17.763-10.508,16.387-18.3-.214-1.21-.48-2.332-.746-3.308-.079-.286-.159-.563-.238-.821a.1.1,0,0,0,0-.032l-.317.139c-.222.1-.436.194-.655.3v.036c0,.222-.02.44-.032.655-.024.4-.052.774-.083,1.146a3.046,3.046,0,0,1-.04.4c-.075.722-.171,1.412-.286,2.079a1.937,1.937,0,0,1-.071.4q-.1.547-.226,1.071c-.032.151-.067.3-.107.448-.1.4-.21.793-.329,1.17-.044.151-.091.3-.143.448-.143.44-.3.865-.472,1.277-.056.139-.111.274-.171.4s-.115.266-.175.4-.123.258-.186.4c-.159.325-.325.643-.5.948-.063.119-.131.234-.2.345q-.159.274-.333.536c-.06.1-.123.186-.182.278s-.19.278-.29.4-.139.194-.214.29-.119.163-.182.238c-.135.175-.274.345-.417.508s-.214.25-.325.373-.266.29-.4.428c-.2.206-.4.4-.607.587a14.4,14.4,0,0,1-1.277,1.055c-.218.163-.444.321-.666.468-.115.079-.226.155-.341.222s-.214.135-.317.2-.246.147-.373.214-.21.119-.317.175l-.19.1-.365.186c-.44.218-.889.42-1.341.6l-.436.171c-.234.087-.468.171-.706.25l-.587.186c-.139.04-.278.083-.416.119l-.373.1-.321.083-.258.059-.254.056-.29.063-.373.075-.662.119-.456.071-.329.048-.4.052-.369.044-.516.052h-.079A15.251,15.251,0,0,0,252.71,216.007Z" transform="translate(-235.705 -187.754)" stroke="#000" stroke-miterlimit="10" stroke-width="0.5" opacity="0.8"/>
    <path id="Path_107" data-name="Path 107" d="M253.76,215.162h.079l.516-.052.369-.044.4-.052.329-.048.456-.071.662-.119.373-.075.29-.063.254-.056.258-.06.321-.083.373-.1c.139-.036.278-.079.417-.119l.587-.186c.238-.079.472-.163.706-.25l.436-.171c.452-.178.9-.4,1.341-.6l.365-.186.19-.1c.107-.056.214-.111.317-.175s.25-.143.373-.214l.317-.2.341-.222c.222-.147.448-.305.666-.468.436-.325.865-.678,1.277-1.055.206-.19.4-.4.607-.587q.206-.206.4-.428c.111-.123.218-.246.325-.373s.282-.333.417-.508c.063-.075.123-.159.182-.238s.147-.19.214-.29.194-.274.29-.4a2.5,2.5,0,0,0,.182-.278q.175-.262.333-.536c.067-.111.135-.226.2-.345.175-.305.341-.623.5-.948.063-.131.127-.258.186-.4s.119-.262.175-.4.115-.27.171-.4c.171-.4.329-.837.472-1.277.052-.147.1-.3.143-.448.119-.4.23-.77.329-1.17.04-.147.075-.3.107-.448q.127-.524.226-1.071c.028-.131.052-.262.071-.4.115-.666.21-1.357.286-2.079,0-.131.028-.266.04-.4.032-.373.06-.754.083-1.146,0-.214.024-.432.032-.655v-.036a33.361,33.361,0,0,0-17.057,17.359c-.337.821-.631,1.654-.889,2.5A.673.673,0,0,1,253.76,215.162Z" transform="translate(-236.337 -188.485)" stroke="#000" stroke-miterlimit="10" stroke-width="0.5" opacity="0.8"/>
    <path id="Path_108" data-name="Path 108" d="M311.85,187.733l.028.02c15.808,9.671,29.493,12.4,39.989,12.352.547,0,1.083,0,1.615-.028l-.127-.171a33.653,33.653,0,0,0-6.418-6.319h0a73.644,73.644,0,0,1-26.419-7.458h-.337l-.266.028h-.075c-.171,0-.333.032-.5.048h-.087l-.607.071h-.19l-.194.024a.3.3,0,0,0-.083,0,38.758,38.758,0,0,0-4.7.912C312.909,187.423,312.378,187.574,311.85,187.733Z" transform="translate(-271.489 -183.135)" stroke="#000" stroke-miterlimit="10" stroke-width="0.5"/>
  </g>
</svg>
