<svg xmlns="http://www.w3.org/2000/svg" width="100.736" height="115.176" viewBox="0 0 100.736 115.176">
  <g id="rock-girl" transform="translate(0.304 0.254)">
    <path id="Path_32" data-name="Path 32" d="M359.745,260.612a27.943,27.943,0,0,1-1.886,10.1c-4.755,12.343-18.008,21.226-33.6,21.226-14.6,0-27.148-7.787-32.594-18.914a28.1,28.1,0,0,1-2.893-12.407c0-.756.031-1.511.09-2.247,1.308-16.248,16.655-29.074,35.4-29.074,17.517,0,32.07,11.2,34.963,25.927A27.95,27.95,0,0,1,359.745,260.612Z" transform="translate(-268.345 -227.44)" fill="#42210b" stroke="#000" stroke-miterlimit="10" stroke-width="0.5" opacity="0.77"/>
    <g id="Group_15" data-name="Group 15" transform="translate(21.295 1.85)" opacity="0.2">
      <path id="Path_33" data-name="Path 33" d="M328.173,291.742c-1.284.125-2.592.192-3.915.192-19.6,0-35.488-14.024-35.488-31.322s15.888-31.322,35.488-31.322c1.323,0,2.631.059,3.915.184C310.413,231.2,296.6,244.481,296.6,260.612S310.413,290.023,328.173,291.742Z" transform="translate(-288.77 -229.29)"/>
    </g>
    <path id="Path_34" data-name="Path 34" d="M283.839,317.948l-.936.513c-5.09,2.741-6.264.391-6.264-5.873,0-5.873-3.109-10.1,3.524-9.4.309.027.6.067.873.1-.059.736-.09,1.492-.09,2.247A28.1,28.1,0,0,0,283.839,317.948Z" transform="translate(-258.829 -273.291)" fill="#42210b" stroke="#000" stroke-miterlimit="10" stroke-width="0.5" opacity="0.77"/>
    <path id="Path_35" data-name="Path 35" d="M470.909,304.568c0,6.022-1.081,8.418-5.669,6.174a27.983,27.983,0,0,0,1.359-15.485l.783-.086C474.018,294.471,470.909,298.7,470.909,304.568Z" transform="translate(-377.323 -268.204)" fill="#42210b" stroke="#000" stroke-miterlimit="10" stroke-width="0.5" opacity="0.77"/>
    <path id="Path_36" data-name="Path 36" d="M366.657,400.327a12.2,12.2,0,0,0-.337,5.5,16.4,16.4,0,0,0,.392,1.958l-7.22-2.349c3.152,3.042,4.949,11.092,5.959,18.554h0a19.727,19.727,0,0,1-14.4,9.24c-10.571,1.566,3.915,1.566,5.09,1.958s-21.925,11.746-42.265,3.915h-.02c-1.175-21.142,6.4-33.671,6.4-33.671-3.782,3.524-6.4,3.524-6.4,3.524a20.952,20.952,0,0,0,.415-3.058,13.951,13.951,0,0,0-.756-5.63,7.556,7.556,0,0,0-1.225-2.275s11.53-7.392,23.029-9.33c-.971,1.03-3.023,3.579-1.5,5.415,1.652,1.981,4.976,2.012,5.975,1.958h.031c1,.043,4.307,0,5.975-1.958s-.806-4.718-1.672-5.6c11.158,1.594,24.145,9.514,24.145,9.514A5,5,0,0,0,366.657,400.327Z" transform="translate(-282.744 -329.142)" fill="#321bff" stroke="#000" stroke-miterlimit="10" stroke-width="0.5"/>
    <path id="Path_37" data-name="Path 37" d="M442.751,517.285q-2.788,1.174-5.481,2.059c1.688-.591,3.395-1.276,5.09-2.059a1.273,1.273,0,0,0,.392-.325C442.747,517.167,442.751,517.285,442.751,517.285Z" transform="translate(-359.788 -408.225)" fill="#fff" stroke="#000" stroke-miterlimit="10" stroke-width="0.5"/>
    <path id="Path_38" data-name="Path 38" d="M380.715,390.139c0,2.932-1.566,5.329-3.524,5.481a1.572,1.572,0,0,1-.192,0,3.327,3.327,0,0,1-.341-.023c-1.895-.258-3.379-2.6-3.379-5.458a7.915,7.915,0,0,1,.125-1.413c.039-.223.09-.442.145-.646a29.508,29.508,0,0,1,4.037-.29,24.161,24.161,0,0,1,2.827.168c.051.18.1.368.137.56A7.767,7.767,0,0,1,380.715,390.139Z" transform="translate(-319.782 -326.695)" fill="#42210b" stroke="#000" stroke-miterlimit="10" stroke-width="0.5" opacity="0.77"/>
    <path id="Path_39" data-name="Path 39" d="M378.4,393.924c-1.652,1.981-4.976,2.012-5.975,1.958h-.031c-1,.043-4.307,0-5.975-1.958-1.527-1.836.525-4.385,1.5-5.415l.658-.106c.153-.023.309-.047.466-.063-.055.2-.106.423-.145.646a7.912,7.912,0,0,0-.125,1.413c0,2.858,1.484,5.2,3.379,5.458a3.319,3.319,0,0,0,.341.023,1.548,1.548,0,0,0,.192,0c1.958-.141,3.524-2.537,3.524-5.481a7.761,7.761,0,0,0-.168-1.621,5.322,5.322,0,0,0-.137-.56,2.558,2.558,0,0,1,.419.055l.392.051C377.593,389.207,380.017,391.971,378.4,393.924Z" transform="translate(-315.275 -326.962)" fill="#ff64dd" stroke="#000" stroke-miterlimit="10" stroke-width="0.5"/>
    <path id="Path_40" data-name="Path 40" d="M486.891,414.648a1.019,1.019,0,0,0-.392.125A.564.564,0,0,1,486.891,414.648Z" transform="translate(-390.44 -343.424)" fill="#42210b" stroke="#000" stroke-miterlimit="10" stroke-width="0.5" opacity="0.8"/>
    <path id="Path_41" data-name="Path 41" d="M497.16,432.717l-.07.067a.776.776,0,0,0,.039-.113Z" transform="translate(-397.054 -354.82)" fill="#42210b" stroke="#000" stroke-miterlimit="10" stroke-width="0.5" opacity="0.8"/>
    <path id="Path_42" data-name="Path 42" d="M486.891,414.648a1.019,1.019,0,0,0-.392.125A.564.564,0,0,1,486.891,414.648Z" transform="translate(-390.44 -343.424)" fill="#42210b" stroke="#000" stroke-miterlimit="10" stroke-width="0.5" opacity="0.8"/>
    <path id="Path_43" data-name="Path 43" d="M466.717,423.864a1.76,1.76,0,0,1-.251,0c-2.11,0-2.349-.783-2.349-1.566,0,0-2.349,2.349-14.095.783a12.2,12.2,0,0,1,.337-5.5l.047.02s9,1.958,13.312,1.566a7.69,7.69,0,0,1,.051-2.306,1.445,1.445,0,0,0,.948,1.057,1.64,1.64,0,0,0,1,.1.744.744,0,0,1-.035,1.449.885.885,0,0,0,.54.7.959.959,0,0,0-.54.861c.039.505.6.877,1.284.877-.756.055-1.327.54-1.284,1.081A1.081,1.081,0,0,0,466.717,423.864Z" transform="translate(-368.033 -345.072)" fill="#42210b" stroke="#000" stroke-miterlimit="10" stroke-width="0.5" opacity="0.8"/>
    <path id="Path_44" data-name="Path 44" d="M497.16,432.717l-.07.067a.776.776,0,0,0,.039-.113Z" transform="translate(-397.054 -354.82)" fill="#42210b" stroke="#000" stroke-miterlimit="10" stroke-width="0.5" opacity="0.8"/>
    <path id="Path_45" data-name="Path 45" d="M493.013,421.917a.959.959,0,0,1-.54.865,1.782,1.782,0,0,1-.748.223h-.145a1.633,1.633,0,0,1-.76-.172.885.885,0,0,1-.54-.7.975.975,0,0,1,.576-.881.5.5,0,0,0,.078.043,1.743,1.743,0,0,0,.713.145,1.777,1.777,0,0,0,.854-.215A.877.877,0,0,1,493.013,421.917Z" transform="translate(-392.879 -347.639)" fill="#42210b" stroke="#000" stroke-miterlimit="10" stroke-width="0.5" opacity="0.8"/>
    <path id="Path_46" data-name="Path 46" d="M493.019,425.911a1.03,1.03,0,0,1-.744.963,1.958,1.958,0,0,1-.54.125h-.161c-.685,0-1.245-.372-1.284-.877a.959.959,0,0,1,.54-.861,1.633,1.633,0,0,0,.76.172h.145a1.782,1.782,0,0,0,.748-.223A.885.885,0,0,1,493.019,425.911Z" transform="translate(-392.885 -350.163)" fill="#42210b" stroke="#000" stroke-miterlimit="10" stroke-width="0.5" opacity="0.8"/>
    <path id="Path_47" data-name="Path 47" d="M493.021,430.673a.75.75,0,0,1-.027.262.775.775,0,0,1-.039.114h0a1.429,1.429,0,0,1-1.218.709,2.047,2.047,0,0,1-.411,0h0a1.081,1.081,0,0,1-1.03-.857c-.043-.54.529-1.026,1.284-1.081h.161a1.775,1.775,0,0,1,.681.133A.92.92,0,0,1,493.021,430.673Z" transform="translate(-392.888 -353.085)" fill="#42210b" stroke="#000" stroke-miterlimit="10" stroke-width="0.5" opacity="0.8"/>
    <path id="Path_48" data-name="Path 48" d="M493.071,417.769a.912.912,0,0,1-.517.763,1.777,1.777,0,0,1-.854.215,1.742,1.742,0,0,1-.713-.145.509.509,0,0,1-.078-.043.979.979,0,0,1-.54-.568.96.96,0,0,0,.392-.188.7.7,0,0,0,.239-.3.783.783,0,0,0,0-.579,1.869,1.869,0,0,1,.693-.133C492.457,416.79,493.071,417.228,493.071,417.769Z" transform="translate(-392.934 -344.843)" fill="#42210b" stroke="#000" stroke-miterlimit="10" stroke-width="0.5" opacity="0.8"/>
    <path id="Path_49" data-name="Path 49" d="M487.988,416.185a.7.7,0,0,1-.239.3.96.96,0,0,1-.392.188,1.64,1.64,0,0,1-1-.1,1.445,1.445,0,0,1-.947-1.057.74.74,0,0,1,.419-.756h0a1.018,1.018,0,0,1,.392-.125,1.738,1.738,0,0,1,.869.129,1.542,1.542,0,0,1,.893.842A.783.783,0,0,1,487.988,416.185Z" transform="translate(-389.827 -343.478)" fill="#42210b" stroke="#000" stroke-miterlimit="10" stroke-width="0.5" opacity="0.8"/>
    <path id="Path_50" data-name="Path 50" d="M283.827,421.089c-.219.031-.45.07-.689.1-11.82,1.605-14.185-.807-14.185-.807-.419.63-3.943.63-3.943.63s-1.958,0-1.958-.392c0-.783,2.075-.313,2.146-.442.129-.243-2.537-.341-2.537-.732,0-.783,3.2-.607,3.328-.885.086-.2-3.719.493-3.719-.29s4.17-.716,4.307-1.175c.1-.345-4.307,0-4.307-.783s1.958-.435,3.132-.783c.435-.129-1.382-1.053-1.175-1.566.783-1.958,5.5,1.958,5.09,2.741,4.334.391,13.425-1.139,13.425-1.139l.329-.11A13.95,13.95,0,0,1,283.827,421.089Z" transform="translate(-250.488 -342.946)" fill="#42210b" stroke="#000" stroke-miterlimit="10" stroke-width="0.5" opacity="0.8"/>
    <ellipse id="Ellipse_1" data-name="Ellipse 1" cx="2.349" cy="2.349" rx="2.349" ry="2.349" transform="translate(54.68 81.393)" fill="#fff" stroke="#000" stroke-miterlimit="10" stroke-width="0.5"/>
    <ellipse id="Ellipse_2" data-name="Ellipse 2" cx="2.349" cy="2.349" rx="2.349" ry="2.349" transform="translate(54.68 89.47)" fill="#fff" stroke="#000" stroke-miterlimit="10" stroke-width="0.5"/>
    <ellipse id="Ellipse_3" data-name="Ellipse 3" cx="2.349" cy="2.349" rx="2.349" ry="2.349" transform="translate(54.68 97.547)" fill="#fff" stroke="#000" stroke-miterlimit="10" stroke-width="0.5"/>
    <path id="Path_51" data-name="Path 51" d="M369.2,494a1.272,1.272,0,0,1-.392.325c-1.711.783-3.418,1.468-5.09,2.059a67.791,67.791,0,0,1-21.052,3.488h-.392c-14.4,0-24.235-4.7-25.711-5.481l-.067-.035h0a.846.846,0,0,1-.086-.043h0c20.359,7.831,43.459-3.524,42.284-3.915s-15.661-.391-5.09-1.958A19.727,19.727,0,0,0,368,479.2C368.886,486.095,369.148,492.5,369.2,494Z" transform="translate(-285.247 -385.2)" fill="#ff64dd" stroke="#000" stroke-miterlimit="10" stroke-width="0.5"/>
    <path id="Path_52" data-name="Path 52" d="M329.12,229.93h-.059a38.4,38.4,0,0,0-12.854,3.809,35.5,35.5,0,0,0-5.5,3.4h0a33.1,33.1,0,0,0-6.335,6.237c-.043.055-.086.11-.125.168a.07.07,0,0,0-.02.027v-.023l-.027-.063h0a33.087,33.087,0,0,1,6.421-6.343h0a1.247,1.247,0,0,1,.168-.125,35.632,35.632,0,0,1,5.188-3.218h0a38.534,38.534,0,0,1,13.143-3.872Z" transform="translate(-276.862 -226.821)"/>
    <path id="Path_53" data-name="Path 53" d="M329.1,229.93a38.532,38.532,0,0,0-13.128,3.892h0a35.627,35.627,0,0,0-5.215,3.222,1.7,1.7,0,0,0-.168.125h0a33.087,33.087,0,0,0-6.421,6.343h0l.027.059v.023l.02-.027.125-.168a33.1,33.1,0,0,1,6.335-6.237h0a35.506,35.506,0,0,1,5.5-3.4,38.4,38.4,0,0,1,12.865-3.8h.059Z" transform="translate(-276.844 -226.822)"/>
    <path id="Path_54" data-name="Path 54" d="M430.84,259.817c-5.513,0-9.541-1.468-11.969-4.362-3.222-3.845-3.038-9.537-2.314-13.637.188-1.065.435-2.161.736-3.257.067-.243.133-.478.2-.7.29.125.579.255.865.392a32.615,32.615,0,0,1,16.718,17.063c.356.877.666,1.758.92,2.623.153.517.278,1,.392,1.46-1.339.188-2.6.309-3.755.372C432.019,259.8,431.42,259.817,430.84,259.817Z" transform="translate(-346.972 -231.995)"/>
    <path id="Path_55" data-name="Path 55" d="M417.4,237.786c.266.117.517.231.76.348a32.609,32.609,0,0,1,16.671,17.008c.356.877.662,1.754.916,2.615.141.478.258.924.36,1.351-1.3.176-2.521.3-3.637.356-.607.031-1.21.047-1.785.047-5.481,0-9.483-1.456-11.891-4.326-3.2-3.817-3.015-9.479-2.294-13.558.188-1.061.435-2.153.732-3.246.055-.2.114-.391.168-.6m-.121-.266q-.117.392-.235.81c-.262.963-.525,2.067-.736,3.265-1.312,7.408-.607,18.112,14.377,18.112.579,0,1.175,0,1.8-.051q1.809-.088,3.868-.392c-.121-.532-.262-1.057-.415-1.566-.262-.889-.572-1.766-.92-2.627a32.859,32.859,0,0,0-16.769-17.113C417.922,237.8,417.6,237.657,417.276,237.52Z" transform="translate(-346.815 -231.783)"/>
    <path id="Path_56" data-name="Path 56" d="M458.213,286.594a8.582,8.582,0,0,1-.1-2c.114-.861.6-1.523,2.6-1.958.309.76.6,1.566.846,2.384.02.059.035.117.051.18.145.482.274.967.391,1.449-1.331.184-2.588.309-3.735.372Z" transform="translate(-372.774 -260.038)"/>
    <path id="Path_57" data-name="Path 57" d="M460.526,282.531c.3.732.568,1.507.81,2.3.02.055.035.114.055.18.129.442.251.889.356,1.335-1.253.172-2.439.29-3.524.352a3.023,3.023,0,0,0-.039-.329,8.362,8.362,0,0,1-.1-1.958c.106-.83.556-1.433,2.447-1.872m.121-.231-.067.02c-1.93.431-2.564,1.057-2.694,2.059a11.533,11.533,0,0,0,.16,2.525q1.809-.088,3.868-.391h.074q-.184-.783-.411-1.566a.684.684,0,0,0-.055-.188c-.255-.834-.544-1.66-.877-2.471Z" transform="translate(-372.646 -259.827)"/>
    <path id="Path_58" data-name="Path 58" d="M248.56,298.05h-.45A1.735,1.735,0,0,0,248.56,298.05Z" transform="translate(-241.332 -269.693)" stroke="#000" stroke-miterlimit="10" stroke-width="0.5"/>
    <path id="Path_59" data-name="Path 59" d="M266.431,232.148l-.09.121a1.242,1.242,0,0,0-.168.125h0a33.087,33.087,0,0,0-6.421,6.343c-.258-.513-2.122-4.056-3.888-1.108-.172.282-.392.591-.6.9l-.164.223-.172.223h0c-.055.074-.114.145-.176.219h0l-.18.219h0c-4.878,5.849-17.317,14.506-22.552,9.714a3.372,3.372,0,0,1-.294-.286,2.149,2.149,0,0,1-.153-.176,11.016,11.016,0,0,1,.02-5.959s1.566,6.264,6.656,4.307c7.709-2.964,12.92-11.354,16.835-19.968,5.09-11.233,9.514-.478,10.9,3.641C266.274,231.568,266.431,232.148,266.431,232.148Z" transform="translate(-231.145 -222.083)" stroke="#000" stroke-miterlimit="10" stroke-width="0.5"/>
    <path id="Path_60" data-name="Path 60" d="M310.747,248.1l-.09.117h0a33.1,33.1,0,0,0-6.335,6.237c-.043.055-.086.11-.125.168a.071.071,0,0,0-.02.027v-.023l-.027-.063h0a33.086,33.086,0,0,1,6.421-6.343h0A1.25,1.25,0,0,1,310.747,248.1Z" transform="translate(-276.487 -238.216)" stroke="#000" stroke-miterlimit="10" stroke-width="0.5"/>
    <path id="Path_61" data-name="Path 61" d="M340.329,234.262l-.074.07c-18.194,16.593-33.812,20-44.387,19.576-.517-.023-1.022-.051-1.515-.086-.337-.023-.666-.059-.991-.09h-.082v-.023c0-.094.023-.176.027-.258a29.793,29.793,0,0,1,4.252-7.635l.027.063v.023a.071.071,0,0,1,.02-.027c.525,0,1.053.027,1.594.027,10.36.047,23.883-2.647,39.469-12.192C339.221,233.882,339.762,234.062,340.329,234.262Z" transform="translate(-270.498 -229.329)" stroke="#000" stroke-miterlimit="10" stroke-width="0.5"/>
    <path id="Path_62" data-name="Path 62" d="M260.426,261.111h0a29.794,29.794,0,0,0-4.252,7.635c.211-2.349-1.985-.525-1.985-.525q-1.049.587-2.044,1.1l-.039.024c-5.36,2.819-9.334,4.236-12.27,4.726h0l-.454.074h-.031a4.114,4.114,0,0,1-.423.047c-.153,0-.3.023-.45.031h.325c-3.825.392-5.63-1.03-6.421-2.846h0a3.185,3.185,0,0,1-.121-.309,2.159,2.159,0,0,0,.153.176,3.367,3.367,0,0,0,.294.286c5.235,4.792,17.673-3.864,22.552-9.714h0l.18-.219h0c.063-.074.121-.145.176-.219h0l.172-.223.164-.223c.227-.313.431-.623.6-.9C258.3,257.055,260.168,260.6,260.426,261.111Z" transform="translate(-231.745 -245.193)" stroke="#000" stroke-miterlimit="10" stroke-width="0.5"/>
    <path id="Path_63" data-name="Path 63" d="M248.56,298.05h-.45A1.735,1.735,0,0,0,248.56,298.05Z" transform="translate(-241.332 -269.693)" stroke="#000" stroke-miterlimit="10" stroke-width="0.5"/>
    <path id="Path_64" data-name="Path 64" d="M341.059,236.05c-.078.258-.157.529-.235.814-.431.54-.857,1.065-1.284,1.566-25.257,30.578-46.231,21.107-48.94,19.705a27.589,27.589,0,0,1,1.03-3.555h.082c.325.031.654.067.99.09.493.035,1,.063,1.515.086,10.571.415,26.193-2.987,44.387-19.576l.074-.07Q339.9,235.549,341.059,236.05Z" transform="translate(-268.895 -230.313)" stroke="#000" stroke-miterlimit="10" stroke-width="0.5" opacity="0.8"/>
    <path id="Path_65" data-name="Path 65" d="M415.849,235.994a.179.179,0,0,0,0,.031q-1.175-.5-2.349-.936a.051.051,0,0,0,.023-.02Q414.7,235.5,415.849,235.994Z" transform="translate(-344.83 -229.884)" stroke="#000" stroke-miterlimit="10" stroke-width="0.5" opacity="0.8"/>
    <path id="Path_66" data-name="Path 66" d="M410.869,234.212a.051.051,0,0,1-.023.02c-.552-.2-1.108-.392-1.676-.552a.059.059,0,0,1,.027-.02c.419.129.83.258,1.241.392l.3.11Z" transform="translate(-342.104 -228.986)" stroke="#000" stroke-miterlimit="10" stroke-width="0.5" opacity="0.8"/>
    <path id="Path_67" data-name="Path 67" d="M385.585,229.5h-.2c-.435-.039-.869-.067-1.312-.086.442.02.881.043,1.319.082Z" transform="translate(-326.398 -226.292)" stroke="#000" stroke-miterlimit="10" stroke-width="0.5" opacity="0.8"/>
    <path id="Path_68" data-name="Path 68" d="M392.6,230.126h0a.062.062,0,0,0-.035,0Z" transform="translate(-331.674 -226.742)" stroke="#000" stroke-miterlimit="10" stroke-width="0.5" opacity="0.8"/>
    <path id="Path_69" data-name="Path 69" d="M346.9,229.466a72.6,72.6,0,0,1-26.075,7.361,35.5,35.5,0,0,1,5.5-3.4,38.4,38.4,0,0,1,12.854-3.8h.059q1.425-.16,2.889-.219c.274,0,.552-.02.83-.023h.877c.583,0,1.174,0,1.746.035A10.487,10.487,0,0,1,346.9,229.466Z" transform="translate(-287.321 -226.378)" stroke="#000" stroke-miterlimit="10" stroke-width="0.5"/>
    <path id="Path_70" data-name="Path 70" d="M326.2,239.71a35.5,35.5,0,0,0-5.5,3.4h-.078a1.25,1.25,0,0,1,.168-.125,35.631,35.631,0,0,1,5.188-3.218h0Z" transform="translate(-286.778 -232.855)" stroke="#000" stroke-miterlimit="10" stroke-width="0.5" opacity="0.8"/>
    <path id="Path_71" data-name="Path 71" d="M385.4,229.456h0c-.435-.039-.869-.067-1.312-.086C384.525,229.393,384.963,229.417,385.4,229.456Z" transform="translate(-326.406 -226.267)" stroke="#000" stroke-miterlimit="10" stroke-width="0.5" opacity="0.8"/>
    <path id="Path_72" data-name="Path 72" d="M436.424,259.2h-.074c-1.374.188-2.662.321-3.868.391-16.722.877-17.532-10.371-16.174-18.061.211-1.2.474-2.3.736-3.265.078-.286.157-.556.235-.814a.179.179,0,0,1,0-.031l.313.141c.219.094.431.192.646.3v.031c0,.219.02.435.031.65.023.392.051.783.082,1.132a3.089,3.089,0,0,0,.039.392c.074.713.168,1.394.282,2.052.02.137.043.266.07.392.067.364.141.713.223,1.057.031.149.066.3.106.442.1.392.208.783.325,1.175.043.149.09.3.141.442.141.435.3.853.466,1.257.055.141.11.27.168.392s.114.258.172.392.121.251.184.392c.157.325.321.634.493.94.063.114.129.227.2.341.106.18.215.352.329.525.059.1.121.188.18.274s.188.278.286.411.137.192.211.286.117.157.18.231q.2.258.411.505c.106.125.211.247.321.368s.262.286.392.419c.2.2.392.391.6.583a14.873,14.873,0,0,0,1.261,1.038c.215.164.439.317.658.462.114.078.223.153.337.219s.211.137.313.2l.368.215.313.172.188.1.36.184c.435.211.877.415,1.323.591l.431.168.7.247c.192.059.391.125.579.18s.274.086.411.121.247.07.368.1l.317.086.254.059c.082.02.164.039.251.051l.286.067.368.074.654.117.45.067.325.047c.137.02.274.039.392.051s.243.035.364.043.341.039.509.051h.078A16.155,16.155,0,0,1,436.424,259.2Z" transform="translate(-346.82 -231.72)" stroke="#000" stroke-miterlimit="10" stroke-width="0.5" opacity="0.8"/>
    <path id="Path_73" data-name="Path 73" d="M439.754,258.344h-.078a3.74,3.74,0,0,1-.509-.051c-.168-.023-.243-.027-.364-.043s-.27-.031-.392-.051l-.325-.047-.45-.067-.654-.117-.368-.074-.286-.067a1.1,1.1,0,0,1-.251-.051l-.255-.059-.317-.086c-.121-.027-.243-.067-.368-.1s-.274-.078-.411-.121l-.579-.18-.7-.247-.431-.168c-.446-.176-.889-.392-1.323-.591l-.36-.184-.188-.1-.313-.172-.368-.215c-.106-.067-.208-.125-.313-.2l-.337-.219c-.219-.145-.442-.3-.658-.462-.431-.321-.854-.666-1.261-1.038-.2-.192-.392-.392-.6-.583a5.642,5.642,0,0,1-.392-.419c-.121-.145-.215-.243-.321-.368s-.278-.333-.411-.505c-.063-.074-.121-.153-.18-.231s-.145-.188-.211-.286-.192-.27-.286-.411-.121-.176-.18-.274c-.114-.172-.223-.345-.329-.525-.067-.114-.133-.227-.2-.341-.172-.305-.337-.615-.493-.94-.063-.129-.125-.251-.184-.392s-.117-.262-.172-.392-.113-.266-.168-.392c-.168-.392-.325-.822-.466-1.257-.051-.145-.1-.294-.141-.442-.117-.392-.227-.76-.325-1.175-.039-.141-.074-.294-.106-.442-.082-.345-.157-.693-.223-1.057-.027-.125-.051-.254-.07-.392-.114-.658-.208-1.339-.282-2.052,0-.129-.027-.258-.039-.392-.031-.368-.059-.744-.082-1.132,0-.215-.023-.431-.031-.65v-.031a32.92,32.92,0,0,1,16.835,17.129c.333.81.622,1.637.877,2.471A.65.65,0,0,0,439.754,258.344Z" transform="translate(-350.589 -232.4)" stroke="#000" stroke-miterlimit="10" stroke-width="0.5" opacity="0.8"/>
    <ellipse id="Ellipse_4" data-name="Ellipse 4" cx="1.527" cy="3.054" rx="1.527" ry="3.054" transform="translate(40.12 30.108)"/>
    <ellipse id="Ellipse_5" data-name="Ellipse 5" cx="1.527" cy="3.054" rx="1.527" ry="3.054" transform="translate(70.625 30.108)"/>
    <ellipse id="Ellipse_6" data-name="Ellipse 6" cx="3.328" cy="0.979" rx="3.328" ry="0.979" transform="translate(32.382 42.366)" fill="#42210b" opacity="0.6"/>
    <ellipse id="Ellipse_7" data-name="Ellipse 7" cx="3.328" cy="0.979" rx="3.328" ry="0.979" transform="translate(75.765 42.366)" fill="#42210b" opacity="0.6"/>
    <path id="Path_74" data-name="Path 74" d="M354.468,353.79c-3.915,8.222,15.661,10.571,18.01,1.566" transform="translate(-307.934 -305.15)" fill="none" stroke="#000" stroke-miterlimit="10" stroke-width="0.5"/>
    <path id="Path_75" data-name="Path 75" d="M345.38,231.2a.059.059,0,0,0-.027.02c-15.6,9.545-29.11,12.239-39.469,12.192-.54,0-1.069,0-1.594-.027.039-.059.082-.114.125-.168a33.1,33.1,0,0,1,6.335-6.237h0a72.687,72.687,0,0,0,26.075-7.361h.333a.844.844,0,0,1,.262.027h.074l.493.047h.023a.171.171,0,0,1,.063,0l.6.067.153.02h0a.062.062,0,0,1,.035,0h0a.538.538,0,0,1,.192.023.3.3,0,0,1,.082,0,37.508,37.508,0,0,1,4.64.9C344.335,230.892,344.859,231.041,345.38,231.2Z" transform="translate(-277.285 -226.627)" stroke="#000" stroke-miterlimit="10" stroke-width="0.5"/>
  </g>
</svg>
