<svg xmlns="http://www.w3.org/2000/svg" width="91.066" height="120.524" viewBox="0 0 91.066 120.524">
  <g id="scissor-girl" transform="translate(0.25 0.25)">
    <path id="Path_5" data-name="Path 5" d="M347.03,237.775a29.54,29.54,0,0,1-1.992,10.667c-5.022,13.034-19.022,22.417-35.494,22.417-15.426,0-28.676-8.226-34.429-19.979a29.665,29.665,0,0,1-3.056-13.106c0-.8.033-1.592.1-2.374,1.381-17.163,17.593-30.711,37.39-30.711,18.5,0,33.875,11.832,36.931,27.39a29.444,29.444,0,0,1,.554,5.695Z" transform="translate(-260.893 -204.69)" fill="#42210b" stroke="#000" stroke-miterlimit="10" stroke-width="0.5" opacity="0.77"/>
    <g id="Group_11" data-name="Group 11" transform="translate(83.027 25.387)" opacity="0.85">
      <path id="Path_6" data-name="Path 6" d="M451.353,267.994h0c-.07-.323-.141-.645-.223-.964C451.209,267.353,451.283,267.671,451.353,267.994Z" transform="translate(-451.122 -267.018)"/>
      <path id="Path_7" data-name="Path 7" d="M451.114,267c.083.318.153.641.223.964h0c-.07-.323-.145-.641-.227-.96Z" transform="translate(-451.11 -267)"/>
    </g>
    <g id="Group_12" data-name="Group 12" transform="translate(80.388 26.658)" opacity="0.85">
      <path id="Path_8" data-name="Path 8" d="M446.7,270.26c-.335.149-.74.323-1.216.5C445.959,270.566,446.373,270.413,446.7,270.26Zm-1.241.5c-.29.108-.6.215-.939.327.36-.112.674-.219.959-.327Z" transform="translate(-444.52 -270.26)" fill="#ffc1b4"/>
      <path id="Path_9" data-name="Path 9" d="M446.7,270.26c-.335.149-.74.323-1.216.5C445.959,270.583,446.369,270.413,446.7,270.26Zm-1.241.5c-.29.108-.6.215-.939.327C444.859,270.984,445.173,270.872,445.459,270.765Z" transform="translate(-444.52 -270.26)"/>
    </g>
    <g id="Group_13" data-name="Group 13" transform="translate(43.419)" opacity="0.2">
      <path id="Path_10" data-name="Path 10" d="M353.06,270.661c1.357.132,2.738.2,4.136.2,20.7,0,37.485-14.814,37.485-33.085S377.9,204.69,357.2,204.69c-1.4,0-2.779.066-4.136.2,18.759,1.82,33.35,15.848,33.35,32.886S371.819,268.842,353.06,270.661Z" transform="translate(-353.06 -204.69)"/>
    </g>
    <path id="Path_11" data-name="Path 11" d="M453.35,288.5c0,6.617-1.241,9.1-6.617,6.2l-.893-.488a29.666,29.666,0,0,0,3.085-13.159c0-.807-.033-1.6-.1-2.39.252-.033.521-.062.8-.091C456.659,277.841,453.35,282.3,453.35,288.5Z" transform="translate(-365.198 -249.002)" fill="#42210b" stroke="#000" stroke-miterlimit="10" stroke-width="0.5" opacity="0.77"/>
    <path id="Path_12" data-name="Path 12" d="M265.941,283.045c-4.814,2.337-5.951-.194-5.951-6.543,0-6.2-3.284-10.662,3.722-9.925.637.066,1.208.141,1.716.219a.883.883,0,0,1-.041.174c-.012.058-.029.112-.041.17s-.029.112-.037.169a29.109,29.109,0,0,0-.777,6.712,29.556,29.556,0,0,0,1.412,9.028Z" transform="translate(-250.872 -241.648)" fill="#42210b" stroke="#000" stroke-miterlimit="10" stroke-width="0.5" opacity="0.77"/>
    <path id="Path_13" data-name="Path 13" d="M351.041,375.6a10.045,10.045,0,0,0-.538,5.769q.208,1.264.542,2.5c-5.347-1.071-11.58-9.247-12.436-10.389a.219.219,0,0,0,.029.05c5.79,8.271,12.407,43.424,12.407,43.424-31.431,13.234-55.831,0-55.831,0-1.241-22.332,6.758-35.566,6.758-35.566s3.205-6.071,4.963-9.437c-5.509,10.132-11.733,13.16-11.733,13.16a22.06,22.06,0,0,0,.438-3.23,14.744,14.744,0,0,0-.786-5.947,8.056,8.056,0,0,0-1.294-2.4s12.986-8.325,25.513-10.033a31.168,31.168,0,0,1,4.264-.306,26.423,26.423,0,0,1,2.986.178c11.968,1.377,26.377,10.161,26.377,10.161a5.69,5.69,0,0,0-1.658,2.068Z" transform="translate(-273.574 -302.836)" fill="#00468a" stroke="#000" stroke-miterlimit="10" stroke-width="0.5" opacity="0.7"/>
    <path id="Path_14" data-name="Path 14" d="M362.418,365.671c0,3.2-1.758,5.79-3.929,5.79s-3.929-2.593-3.929-5.79a8.329,8.329,0,0,1,.285-2.175,31.169,31.169,0,0,1,4.264-.306,26.424,26.424,0,0,1,2.986.178A8.224,8.224,0,0,1,362.418,365.671Z" transform="translate(-309.28 -300.591)" fill="#42210b" stroke="#000" stroke-miterlimit="10" stroke-width="0.5" opacity="0.77"/>
    <path id="Path_15" data-name="Path 15" d="M399.732,283.931c-.174,1.774-1.034,3.143-1.919,3.056s-1.464-1.6-1.294-3.366,1.034-3.143,1.919-3.056S399.9,282.157,399.732,283.931Z" transform="translate(-334.79 -250.012)"/>
    <path id="Path_16" data-name="Path 16" d="M318.615,276.041c-.174,1.774-1.03,3.143-1.919,3.056s-1.464-1.592-1.29-3.366,1.03-3.139,1.915-3.056S318.789,274.271,318.615,276.041Z" transform="translate(-285.162 -245.188)"/>
    <path id="Path_17" data-name="Path 17" d="M443.527,406.838s-.414-2.068-.827-1.241c-1,1.993-1.241-.414-1.241-1.241-4.549-4.136-7.444-4.963-10.339-5.376l-.128-.021a10.044,10.044,0,0,1,.538-5.769h0s7.031,2.895,11.166,7.858a1.52,1.52,0,0,1,2.068-1.241c1.241.414,1.886.571,2.068,1.654C447.249,403.943,445.181,407.251,443.527,406.838Z" transform="translate(-356.331 -319.141)" fill="#42210b" stroke="#000" stroke-miterlimit="10" stroke-width="0.5" opacity="0.8"/>
    <path id="Path_18" data-name="Path 18" d="M249.965,401.59a.827.827,0,0,1-.153.533h0a1.572,1.572,0,0,0-1.121.6h-.079c-.8.066-1.481-.343-1.526-.914s.562-1.084,1.361-1.146h.157a1.862,1.862,0,0,1,.641.108A1.013,1.013,0,0,1,249.965,401.59Z" transform="translate(-243.373 -323.284)" fill="#42210b" stroke="#000" stroke-miterlimit="10" stroke-width="0.5" opacity="0.8"/>
    <path id="Path_19" data-name="Path 19" d="M263.4,395.112c-.232.037-.476.074-.728.108-12.485,1.7-14.983-.848-14.983-.848-.591.889-1.092.827-1.452.5a.926.926,0,0,0,.153-.306.712.712,0,0,0,.025-.265,1.017,1.017,0,0,0-.736-.827,1.891,1.891,0,0,0-.79-.1h-.074a.827.827,0,0,0,.153-.533,1.013,1.013,0,0,0-.728-.827,1.862,1.862,0,0,0-.641-.108,2.374,2.374,0,0,0-.9-.2c-.38,0-4.136-.414-4.136-1.241s4.136-.869,5.376-1.241c.459-.136-4.136-2.068-3.309-3.308.724-1.088,7.878,3.722,7.444,4.549,4.578.414,14.181-1.2,14.181-1.2l.347-.12A14.744,14.744,0,0,1,263.4,395.112Z" transform="translate(-238.56 -314.455)" fill="#42210b" stroke="#000" stroke-miterlimit="10" stroke-width="0.5" opacity="0.8"/>
    <path id="Path_20" data-name="Path 20" d="M253.454,405.114a.712.712,0,0,1-.025.265.925.925,0,0,1-.153.306,1.625,1.625,0,0,1-1.183.575c-.8.066-1.481-.343-1.526-.914a.827.827,0,0,1,.157-.542,1.571,1.571,0,0,1,1.121-.6h.083a1.89,1.89,0,0,1,.79.1A1.017,1.017,0,0,1,253.454,405.114Z" transform="translate(-245.503 -325.447)" fill="#42210b" stroke="#000" stroke-miterlimit="10" stroke-width="0.5" opacity="0.8"/>
    <path id="Path_21" data-name="Path 21" d="M295.563,298.419c-.07.567-1.687.827-3.615.6s-3.433-.885-3.362-1.452,1.687-.827,3.615-.6S295.634,297.852,295.563,298.419Z" transform="translate(-268.856 -259.895)" fill="#42210b" opacity="0.6"/>
    <path id="Path_22" data-name="Path 22" d="M412.633,316.669c-.066.567-1.687.827-3.615.6s-3.433-.885-3.362-1.452,1.687-.827,3.615-.6S412.7,316.1,412.633,316.669Z" transform="translate(-340.536 -271.044)" fill="#42210b" opacity="0.6"/>
    <path id="Path_23" data-name="Path 23" d="M298.094,453.19s11.166,3.309,11.166,4.136-8.271.414-6.323,1.551c2.75,1.6,4.669,2.171,9.632,3.825,10.707,3.573-3.114,2.481-4.355,2.895S331.592,478,353.1,469.732c0,0-26.882,13.234-55.831,0C297.267,469.732,296.44,464.356,298.094,453.19Z" transform="translate(-275.615 -356.304)" opacity="0.2"/>
    <path id="Path_24" data-name="Path 24" d="M376.113,234.86h0l-.12.062c-.083.045-.178.091-.285.141s-.232.112-.368.17c-.331.153-.74.323-1.216.5h0c-.285.108-.6.219-.939.327-7.374,2.432-26.468,4.93-48.742-22.014q-.674-.827-1.356-1.654c-.087-.31-.174-.608-.256-.889.546-.236,1.1-.463,1.654-.678l.616-.227.2-.07.1.1c20.852,19.024,38.5,21.629,49.627,20.488.136.376.265.753.385,1.133q.107.323.2.645l.037.128c.087.3.17.6.244.9S376.043,234.537,376.113,234.86Z" transform="translate(-291.473 -207.499)" stroke="#000" stroke-miterlimit="10" stroke-width="0.5"/>
    <path id="Path_25" data-name="Path 25" d="M378.481,230.248c-11.117,1.141-28.767-1.472-49.627-20.488l-.1-.1a.952.952,0,0,1,.141-.05c.1-.041.211-.074.314-.112.434-.149.868-.289,1.311-.414,17.349,10.624,32.258,13.234,43.424,12.87a31.56,31.56,0,0,1,2.581,3.962A30.345,30.345,0,0,1,378.481,230.248Z" transform="translate(-294.978 -206.527)" stroke="#000" stroke-miterlimit="10" stroke-width="0.5"/>
    <path id="Path_26" data-name="Path 26" d="M376.453,219.367c-11.166.356-26.054-2.246-43.4-12.87.55-.165,1.1-.323,1.654-.463A41.918,41.918,0,0,1,345.3,204.69c12.895,0,24.272,5.749,31.017,14.5Z" transform="translate(-297.36 -203.733)" stroke="#000" stroke-miterlimit="10" stroke-width="0.5"/>
    <path id="Path_27" data-name="Path 27" d="M273.94,235.866h0a.675.675,0,0,1,.041-.17c.017-.058.029-.116.041-.17s.025-.116.041-.174a.655.655,0,0,0,0-.087c.037-.145.074-.289.116-.414.054-.2.112-.414.174-.612l.62-.062c8.176-.877,17.564-5.3,18.147-20.839l.339-.161.343-.153.331-.145c.083.281.17.579.256.889.277,1.017.554,2.188.777,3.449C296.711,225.924,295.627,238.984,273.94,235.866Z" transform="translate(-260.229 -208.885)" stroke="#000" stroke-miterlimit="10" stroke-width="0.5"/>
    <path id="Path_28" data-name="Path 28" d="M293.747,214c-.583,15.542-9.971,19.963-18.147,20.839l-.62.062a.656.656,0,0,1,.058-.194C277.751,225.708,284.637,218.231,293.747,214Z" transform="translate(-260.796 -209.531)" stroke="#000" stroke-miterlimit="10" stroke-width="0.5"/>
    <path id="Path_29" data-name="Path 29" d="M311.06,312.64c-1.419,8.42,21.315,23.217,36.745,8.321" transform="translate(-283.49 -269.847)" fill="none" stroke="#000" stroke-miterlimit="10" stroke-width="0.5"/>
    <path id="Path_30" data-name="Path 30" d="M253.843,392.19c-4.136,3.309-.414,4.136.414,2.481" transform="translate(-246.325 -318.152)" fill="none" stroke="#333" stroke-miterlimit="10" stroke-width="0.5"/>
  </g>
</svg>
