<svg id="scissor" xmlns="http://www.w3.org/2000/svg" xmlns:xlink="http://www.w3.org/1999/xlink" width="200" height="198" viewBox="0 0 200 198">
  <defs>
    <linearGradient id="linear-gradient" y1="0.5" x2="1" y2="0.5" gradientUnits="objectBoundingBox">
      <stop offset="0" stop-color="#0f152e"/>
      <stop offset="0.12" stop-color="#141d3a"/>
      <stop offset="0.34" stop-color="#203259"/>
      <stop offset="0.64" stop-color="#34548c"/>
      <stop offset="0.99" stop-color="#4f83d2"/>
      <stop offset="1" stop-color="#5085d5"/>
    </linearGradient>
  </defs>
  <g id="Group_10" data-name="Group 10" opacity="0.85">
    <path id="Path_4" data-name="Path 4" d="M302.008,196.951c4.663,11.809-9.193,24.363-15.488,36.916-5.343,10.657-3.773,28.992-14.3,37.768-9.714,8.1-27.712,3.687-39.788,8.4-12.224,4.774-23.018,20.15-35.658,19.671-11.241-.424-21.083-15.688-32.783-19.468-11.633-3.773-28.47,2.877-37.954-3.278-11.4-7.4-10.693-24.437-14.847-33.77-4.7-10.56-14.011-23.81-3.26-34.583,8.474-8.484,25.155-9.68,29.849-18.635,5.479-10.454-3.248-25.815-.462-35.53,3.458-12.07,18.2-18.355,22.093-26.714,4.783-10.279,5.867-26.088,19.851-26.01,14.109.1,24.992,14.94,36.944,18.884,12.585,4.158,30.358-.779,40.7,8.033,9.4,8.005,8.031,26.6,15.7,38.769C279.079,177.673,296.684,183.51,302.008,196.951Z" transform="translate(-102.949 -101.719)" fill="url(#linear-gradient)"/>
  </g>
</svg>
