<svg xmlns="http://www.w3.org/2000/svg" xmlns:xlink="http://www.w3.org/1999/xlink" viewBox="0 0 92.3 83.89"><defs><style>.cls-1{fill:url(#blue_dark);}.cls-2,.cls-4{fill:none;stroke-miterlimit:10;stroke-width:3px;}.cls-2{stroke:url(#blue_purple);}.cls-3{fill:url(#blue_dark-2);}.cls-4{stroke:url(#blue_purple-2);}</style><linearGradient id="blue_dark" x1="2" y1="41.94" x2="63.8" y2="41.94" gradientUnits="userSpaceOnUse"><stop offset="0" stop-color="#0f152e"/><stop offset="0.12" stop-color="#141d3a"/><stop offset="0.34" stop-color="#203259"/><stop offset="0.64" stop-color="#34548c"/><stop offset="0.99" stop-color="#4f83d2"/><stop offset="1" stop-color="#5085d5"/></linearGradient><linearGradient id="blue_purple" y1="41.94" x2="65.8" y2="41.94" gradientUnits="userSpaceOnUse"><stop offset="0.03" stop-color="#4b67d8"/><stop offset="0.22" stop-color="#4e65d9"/><stop offset="0.37" stop-color="#5860db"/><stop offset="0.5" stop-color="#6856de"/><stop offset="0.62" stop-color="#7f49e3"/><stop offset="0.74" stop-color="#9d38ea"/><stop offset="0.85" stop-color="#c223f2"/><stop offset="0.96" stop-color="#ed0bfb"/><stop offset="1" stop-color="#f0f"/></linearGradient><linearGradient id="blue_dark-2" x1="55.02" y1="54.63" x2="90.8" y2="54.63" xlink:href="#blue_dark"/><linearGradient id="blue_purple-2" x1="53.38" y1="54.63" x2="92.3" y2="54.63" xlink:href="#blue_purple"/></defs><g id="Layer_2" data-name="Layer 2"><g id="Layer_1-2" data-name="Layer 1"><path class="cls-1" d="M25.73,82.39,2,1.5H16.52l16.8,59.87L49.56,1.5H63.8L40,82.39Z"/><path class="cls-2" d="M25.73,82.39,2,1.5H16.52l16.8,59.87L49.56,1.5H63.8L40,82.39Z"/><path class="cls-3" d="M55,64l8.68-1q1.47,10.29,9.6,10.29a9.06,9.06,0,0,0,6.33-2.1,6.78,6.78,0,0,0,2.31-5.22,5.69,5.69,0,0,0-.81-3.11,5.82,5.82,0,0,0-2.45-2.1,69.59,69.59,0,0,0-8-2.77,26.74,26.74,0,0,1-8.32-3.73,14.14,14.14,0,0,1-4.19-5.28,16.19,16.19,0,0,1-1.56-7.05,15.72,15.72,0,0,1,2-7.9,13.11,13.11,0,0,1,5.51-5.31,19,19,0,0,1,8.68-1.79c5.17,0,9.22,1.4,12.12,4.21s4.44,6.83,4.62,12.05l-8.9.48c-.39-2.88-1.24-4.9-2.53-6a8.1,8.1,0,0,0-5.53-1.72,8.88,8.88,0,0,0-5.53,1.5,4.55,4.55,0,0,0-1.94,3.72,4.68,4.68,0,0,0,1.76,3.69Q68.65,46.25,75,48q6.69,2,9.68,4.09a13.83,13.83,0,0,1,4.56,5.53,19.35,19.35,0,0,1,1.57,8.22,16.88,16.88,0,0,1-4.3,11.75Q82.2,82.39,73,82.39,56.86,82.39,55,64Z"/><path class="cls-4" d="M55,64l8.68-1q1.47,10.29,9.6,10.29a9.06,9.06,0,0,0,6.33-2.1,6.78,6.78,0,0,0,2.31-5.22,5.69,5.69,0,0,0-.81-3.11,5.82,5.82,0,0,0-2.45-2.1,69.59,69.59,0,0,0-8-2.77,26.74,26.74,0,0,1-8.32-3.73,14.14,14.14,0,0,1-4.19-5.28,16.19,16.19,0,0,1-1.56-7.05,15.72,15.72,0,0,1,2-7.9,13.11,13.11,0,0,1,5.51-5.31,19,19,0,0,1,8.68-1.79c5.17,0,9.22,1.4,12.12,4.21s4.44,6.83,4.62,12.05l-8.9.48c-.39-2.88-1.24-4.9-2.53-6a8.1,8.1,0,0,0-5.53-1.72,8.88,8.88,0,0,0-5.53,1.5,4.55,4.55,0,0,0-1.94,3.72,4.68,4.68,0,0,0,1.76,3.69Q68.65,46.25,75,48q6.69,2,9.68,4.09a13.83,13.83,0,0,1,4.56,5.53,19.35,19.35,0,0,1,1.57,8.22,16.88,16.88,0,0,1-4.3,11.75Q82.2,82.39,73,82.39,56.86,82.39,55,64Z"/></g></g></svg>